<svg xmlns="http://www.w3.org/2000/svg" viewBox="0 0 512 512">
<path d="M499,314.19V195.25H451.12a201.45,201.45,0,0,0-15.68-36.39L469,125.32l-84.1-84.1L350,76.08a201.38,201.38,0,0,0-33.26-13.44V13H197.81V63A201.32,201.32,0,0,0,163.32,77.4L127.13,41.22,43,125.32l36,36a201.45,201.45,0,0,0-14.33,33.91H13V314.19H63.54a201.1,201.1,0,0,0,13.82,34.54L41.22,384.87l84.1,84.1,34.82-34.81a201.55,201.55,0,0,0,37.67,16.09V499H316.75V450.64a201.47,201.47,0,0,0,36.46-15.13L386.68,469l84.1-84.1-33.62-33.63a201.58,201.58,0,0,0,15.14-37.05ZM380.06,256.64A122.14,122.14,0,1,1,257.92,134.5,122.28,122.28,0,0,1,380.06,256.64Z"/></svg>